<?xml version="1.0" encoding="UTF-8"?>
<svg xmlns="http://www.w3.org/2000/svg" viewBox="0 0 2048 2048">
  <defs>
    <style>
      .cls-1 {
        fill: #fff;
      }
    </style>
  </defs>
  <g id="Layer_3" data-name="Layer 3">
    <rect width="2048" height="2048"/>
  </g>
  <g id="Layer_2" data-name="Layer 2">
    <g>
      <path class="cls-1" d="M522.67,1453.35h216.57c16.78,0,31.33-11.59,35.09-27.94l89.24-388.39c3.76-16.36,18.32-27.94,35.1-27.94l227.18.08c30.2.01,46.99-34.92,28.12-58.5l-274.16-342.51c-6.84-8.54-17.19-13.51-28.13-13.5l-173.53.14c-17.18.01-31.96,12.16-35.29,29.02l-155.5,786.56c-4.4,22.25,12.63,42.98,35.32,42.98Z"/>
      <path class="cls-1" d="M1525.33,594.65h-216.57c-16.78,0-31.33,11.59-35.09,27.94l-89.24,388.39c-3.76,16.36-18.32,27.94-35.1,27.94l-227.18-.08c-30.2-.01-46.99,34.92-28.12,58.5l274.16,342.51c6.84,8.54,17.19,13.51,28.13,13.5l173.53-.14c17.18-.01,31.96-12.16,35.29-29.02l155.5-786.56c4.4-22.25-12.63-42.98-35.32-42.98Z"/>
    </g>
  </g>
</svg>